<?xml version="1.0" encoding="UTF-8"?>
<svg id="Layer_2" data-name="Layer 2" xmlns="http://www.w3.org/2000/svg" xmlns:xlink="http://www.w3.org/1999/xlink" viewBox="0 0 207.39 58.98">
  <defs>
    <style>
      .cls-1 {
        fill: url(#New_Gradient_Swatch_1-2);
      }

      .cls-2 {
        fill: none;
        stroke: url(#New_Gradient_Swatch_1);
        stroke-miterlimit: 10;
      }

      path:not(.cls-1):not(.cls-2) {
        fill: #FFFFFF;
      }
    </style>
    <linearGradient id="New_Gradient_Swatch_1" data-name="New Gradient Swatch 1" x1="19.94" y1="28.89" x2="26.09" y2="28.89" gradientUnits="userSpaceOnUse">
      <stop offset="0" stop-color="#0098ff"/>
      <stop offset="1" stop-color="#00f1e6"/>
    </linearGradient>
    <linearGradient id="New_Gradient_Swatch_1-2" data-name="New Gradient Swatch 1" x1="0" y1="29.49" x2="51.04" y2="29.49" xlink:href="#New_Gradient_Swatch_1"/>
  </defs>
  <g id="Layer_1-2" data-name="Layer 1">
    <g>
      <g>
        <path class="cls-2" d="M25.86,36.5h-5.11l3.14-6.28c-1.83-.65-3.14-2.4-3.14-4.46,0-2.62,2.22-4.46,4.84-4.46.13,0,.25,0,.37.01"/>
        <path class="cls-1" d="M38.35,5l-.34-.14-2.26,3.41-9.45-3.79V1.12l5.62,2.25s0,.1,0,.15c0,.85.69,1.55,1.55,1.55s1.55-.69,1.55-1.55-.69-1.55-1.55-1.55c-.47,0-.92.22-1.21.59l-6.39-2.56L.68,10.09v.31c.17,3.23.27,6.14.37,8.88-.63.21-1.05.8-1.05,1.46,0,.85.69,1.54,1.55,1.54s1.54-.69,1.54-1.54c0-.71-.48-1.32-1.16-1.5-.09-2.46-.19-5.09-.32-7.95l6.63,5.12c.31,6.81.33,11.92.96,16.06-.53.26-.86.8-.86,1.39,0,.85.69,1.55,1.54,1.55.85,0,1.55-.69,1.55-1.55,0-.78-.59-1.44-1.37-1.53-.6-3.98-.64-9.02-.94-15.69l.17-.22,3.58-1.44c.29.37.74.59,1.21.59.85,0,1.55-.69,1.55-1.55s-.69-1.54-1.55-1.54-1.55.69-1.55,1.54c0,.05,0,.1,0,.15l-3.81,1.53-6.73-5.19L25.42,1.12v3.37l-13.75,5.51c-.29-.37-.74-.59-1.21-.59-.85,0-1.55.69-1.55,1.55s.69,1.55,1.55,1.55,1.55-.69,1.55-1.55c0-.05,0-.1,0-.15l3.44-1.38,2.42,3.73,8.01-3.41v11.93c2.24.17,4,2.04,4,4.32,0,1.9-1.23,3.5-2.94,4.09h.05l2.89,6h-4v13.09c-8.66-4.01-12.58-7.28-14.48-11.86l-.06-.16-3.35,1.74c-.59-1.46-1.02-3.03-1.34-4.78-.69-3.75-.87-8.31-1.08-13.99.63-.21,1.05-.8,1.05-1.46,0-.85-.69-1.55-1.55-1.55-.86,0-1.55.69-1.55,1.55,0,.71.48,1.32,1.16,1.5.08,2.21.17,4.26.27,6.15l-3.56-.03v.23c.5,8.05,1.48,13.84,4.93,18.77,3.44,4.93,9.29,8.95,19.37,13.59l.18.08.18-.08c3-1.38,5.6-2.71,7.9-4.03.29.27.67.43,1.06.43.85,0,1.55-.69,1.55-1.55s-.69-1.55-1.55-1.55-1.55.69-1.55,1.55c0,.12.02.24.05.36-2.1,1.2-4.5,2.42-7.21,3.69v-3.33c4.33-2.01,7.73-3.89,10.41-5.82l1.96,3.23.12-.09c6.14-4.47,8.97-9.21,10.35-15.61,1.38-6.4,1.35-14.47,1.89-25.78v-.31s-12.67-5.09-12.67-5.09ZM25.42,9l-7.35,2.95-1.82-2.84,9.17-3.67v3.57ZM2.3,27.18l2.67.03c.16,2.62.39,4.96.78,7.09.34,1.82.8,3.48,1.43,5.03l-2.43,1.28c-1.48-3.68-2.1-7.99-2.45-13.42ZM7.02,44.8c-.76-1.08-1.39-2.21-1.92-3.4l2.43-1.27c.59,1.27,1.3,2.47,2.19,3.62-.17.25-.26.55-.26.86,0,.85.69,1.55,1.55,1.54.85,0,1.55-.69,1.55-1.54s-.69-1.55-1.55-1.55c-.21,0-.42.05-.61.13-.85-1.09-1.53-2.24-2.09-3.46l2.58-1.35c1.12,2.38,2.83,4.42,5.42,6.39l-3.53,5.84c-2.46-1.86-4.34-3.75-5.76-5.79ZM25.42,53.5c-1.65-.77-3.18-1.52-4.56-2.27.02-.11.04-.22.04-.33,0-.85-.69-1.55-1.55-1.55-.85,0-1.55.69-1.55,1.55s.69,1.55,1.55,1.55c.41,0,.8-.16,1.09-.45,1.51.81,3.16,1.63,4.98,2.47v3.34c-5-2.33-8.89-4.5-11.94-6.69l3.53-5.84c2.18,1.55,4.93,3.07,8.41,4.69v3.53ZM36.09,9.35l4.23,1.7s0,.09,0,.14c0,.85.69,1.55,1.55,1.55s1.55-.69,1.55-1.55-.69-1.55-1.55-1.55c-.47,0-.92.22-1.21.59l-4.07-1.63,1.72-2.68,11.42,4.57-6.73,5.19-8.71-3.49,1.82-2.84ZM26.3,9v-3.57l8.97,3.59-1.82,2.84-7.15-2.87ZM26.3,53.5v-3.53c3.47-1.61,6.21-3.13,8.38-4.68l1.58,2.62c-2.55,1.84-5.8,3.65-9.96,5.6ZM38.91,50.6l-1.49-2.47c3.25-2.47,5.35-5.03,6.73-8.04l2.43,1.27c-1.54,3.46-3.91,6.38-7.67,9.24ZM49.44,26.37l-2.66-.02c.12-2.07.21-4.36.3-6.81.68-.17,1.17-.79,1.17-1.5,0-.85-.69-1.55-1.55-1.55-.85,0-1.55.69-1.55,1.55,0,.66.42,1.25,1.05,1.46-.23,6.05-.43,10.87-1.19,14.8-.8.06-1.42.73-1.42,1.54,0,.85.69,1.55,1.55,1.55.85,0,1.55-.69,1.55-1.55,0-.57-.31-1.09-.81-1.36.42-2.17.67-4.57.84-7.26l2.66.03c-.23,3.28-.55,6.18-1.1,8.75-.35,1.63-.8,3.14-1.37,4.56l-3.21-1.62-.12.26c-1.3,3.08-3.34,5.67-6.63,8.18l-1.58-2.61c2.89-2.2,4.68-4.5,5.79-7.27,2-4.95,1.85-11.27,2.3-21.09l6.63-5.11c-.26,5.82-.4,10.79-.67,15.07Z"/>
      </g>
      <g fill="#FFFFFF">
        <g>
          <path d="M68.14,35.17l-.36.28c-.2-.26-.44-.45-.71-.59s-.58-.2-.92-.2c-.36,0-.7.09-1.01.26s-.55.41-.72.7c-.17.29-.26.62-.26.99,0,.56.19,1.02.57,1.39s.86.56,1.44.56c.64,0,1.17-.25,1.6-.75l.36.27c-.23.29-.51.51-.85.67-.34.16-.72.24-1.14.24-.8,0-1.42-.27-1.88-.8-.39-.45-.58-.99-.58-1.62,0-.67.23-1.23.7-1.68s1.05-.68,1.76-.68c.42,0,.81.08,1.15.25.34.17.62.4.84.71Z"/>
          <path d="M69.1,35.51h.46l1.16,2.59,1.12-2.59h.46l-2.01,4.6h-.46l.65-1.49-1.38-3.11Z"/>
          <path d="M73.36,38.88v-4.67h.43v1.88c.18-.22.38-.39.61-.5.22-.11.47-.17.74-.17.48,0,.88.17,1.22.52s.51.77.51,1.26-.17.9-.51,1.25c-.34.34-.75.52-1.23.52-.27,0-.52-.06-.75-.18s-.42-.29-.59-.53v.62h-.43ZM75.1,38.55c.24,0,.46-.06.67-.18.2-.12.37-.29.49-.5.12-.21.18-.44.18-.68s-.06-.47-.18-.68c-.12-.22-.28-.39-.49-.51-.21-.12-.42-.18-.66-.18s-.46.06-.67.18c-.21.12-.38.28-.49.49-.11.2-.17.43-.17.69,0,.39.13.72.38.98.26.26.57.39.95.39Z"/>
          <path d="M80.97,37.76l.37.19c-.12.24-.26.43-.42.57-.16.14-.33.25-.53.33s-.42.11-.67.11c-.55,0-.98-.18-1.29-.54-.31-.36-.46-.77-.46-1.22,0-.43.13-.81.39-1.14.33-.42.78-.64,1.34-.64s1.03.22,1.38.65c.24.31.37.69.37,1.15h-3.03c0,.39.13.71.38.96.24.25.54.38.9.38.17,0,.34-.03.5-.09.16-.06.3-.14.41-.24.11-.1.24-.26.37-.48ZM80.97,36.85c-.06-.23-.14-.42-.25-.55-.11-.14-.26-.25-.44-.33-.18-.08-.37-.13-.57-.13-.33,0-.61.11-.85.32-.17.15-.31.39-.39.7h2.51Z"/>
          <path d="M82.57,35.51h.44v.49c.13-.19.27-.34.42-.44s.3-.14.46-.14c.12,0,.25.04.38.11l-.23.37c-.09-.04-.17-.06-.23-.06-.14,0-.28.06-.42.18s-.24.3-.31.55c-.05.19-.08.58-.08,1.16v1.14h-.44v-3.37Z"/>
          <path d="M87.44,34.33h.91c.5,0,.85.02,1.03.06.27.06.49.19.66.4.17.2.25.45.25.75,0,.25-.06.47-.17.65-.12.19-.28.33-.5.43s-.52.15-.9.15l1.64,2.11h-.56l-1.64-2.11h-.26v2.11h-.46v-4.55ZM87.9,34.77v1.55h.78c.3,0,.53-.02.67-.08.15-.06.26-.15.34-.28s.12-.27.12-.43-.04-.29-.12-.42c-.08-.12-.19-.21-.33-.27s-.36-.08-.67-.08h-.8Z"/>
          <path d="M94.51,37.76l.37.19c-.12.24-.26.43-.42.57-.16.14-.33.25-.53.33s-.42.11-.67.11c-.55,0-.98-.18-1.29-.54-.31-.36-.46-.77-.46-1.22,0-.43.13-.81.39-1.14.33-.42.78-.64,1.34-.64s1.03.22,1.38.65c.24.31.37.69.37,1.15h-3.03c0,.39.13.71.38.96.24.25.54.38.9.38.17,0,.34-.03.5-.09.16-.06.3-.14.41-.24.11-.1.24-.26.37-.48ZM94.51,36.85c-.06-.23-.14-.42-.25-.55-.11-.14-.26-.25-.44-.33-.18-.08-.37-.13-.57-.13-.33,0-.61.11-.85.32-.17.15-.31.39-.39.7h2.51Z"/>
          <path d="M97.96,35.88l-.28.29c-.23-.23-.46-.34-.68-.34-.14,0-.26.05-.36.14s-.15.2-.15.33c0,.11.04.21.12.31.08.1.26.22.52.36.32.17.54.33.66.48.11.16.17.33.17.53,0,.28-.1.51-.29.7s-.44.29-.73.29c-.19,0-.38-.04-.56-.13-.18-.08-.32-.2-.44-.35l.27-.31c.22.25.46.37.7.37.17,0,.32-.06.44-.17s.18-.24.18-.39c0-.12-.04-.23-.12-.33-.08-.09-.26-.21-.55-.36-.3-.16-.51-.31-.62-.46-.11-.15-.17-.33-.17-.52,0-.26.09-.47.26-.64.17-.17.4-.25.66-.25.31,0,.62.15.94.46Z"/>
          <path d="M99.35,34.12c.1,0,.18.04.25.11.07.07.1.15.1.25s-.03.18-.1.25c-.07.07-.15.11-.25.11s-.18-.04-.25-.11c-.07-.07-.11-.15-.11-.25s.04-.18.11-.25c.07-.07.15-.11.25-.11ZM99.14,35.51h.43v3.37h-.43v-3.37Z"/>
          <path d="M100.88,34.21h.43v4.67h-.43v-4.67Z"/>
          <path d="M102.84,34.12c.1,0,.18.04.25.11.07.07.1.15.1.25s-.03.18-.1.25c-.07.07-.15.11-.25.11s-.18-.04-.25-.11c-.07-.07-.11-.15-.11-.25s.04-.18.11-.25c.07-.07.15-.11.25-.11ZM102.63,35.51h.43v3.37h-.43v-3.37Z"/>
          <path d="M107.27,37.76l.37.19c-.12.24-.26.43-.42.57-.16.14-.33.25-.53.33s-.42.11-.67.11c-.55,0-.98-.18-1.29-.54-.31-.36-.46-.77-.46-1.22,0-.43.13-.81.39-1.14.33-.42.78-.64,1.34-.64s1.03.22,1.38.65c.24.31.37.69.37,1.15h-3.03c0,.39.13.71.38.96.24.25.54.38.9.38.17,0,.34-.03.5-.09.16-.06.3-.14.41-.24.11-.1.24-.26.37-.48ZM107.27,36.85c-.06-.23-.14-.42-.25-.55-.11-.14-.26-.25-.44-.33-.18-.08-.37-.13-.57-.13-.33,0-.61.11-.85.32-.17.15-.31.39-.39.7h2.51Z"/>
          <path d="M109.03,35.51h.43v.6c.17-.23.37-.4.58-.52s.44-.17.69-.17.47.06.67.19.34.3.43.52.14.55.14,1.01v1.73h-.43v-1.61c0-.39-.02-.65-.05-.78-.05-.22-.15-.39-.29-.5-.14-.11-.33-.17-.56-.17-.26,0-.5.09-.7.26-.21.17-.34.39-.41.64-.04.17-.06.47-.06.92v1.24h-.43v-3.37Z"/>
          <path d="M116.64,36.21l-.34.21c-.3-.39-.7-.59-1.21-.59-.41,0-.75.13-1.02.4-.27.26-.41.58-.41.96,0,.25.06.48.19.69.12.22.3.38.51.5.22.12.46.18.73.18.5,0,.9-.2,1.21-.59l.34.23c-.16.24-.38.43-.65.56-.27.13-.58.2-.93.2-.53,0-.97-.17-1.33-.51-.35-.34-.53-.75-.53-1.24,0-.33.08-.63.25-.91s.39-.5.68-.65c.29-.16.61-.24.96-.24.22,0,.44.03.64.1.21.07.38.16.53.27s.27.25.37.42Z"/>
          <path d="M120.79,37.76l.37.19c-.12.24-.26.43-.42.57-.16.14-.33.25-.53.33s-.42.11-.67.11c-.55,0-.98-.18-1.29-.54-.31-.36-.46-.77-.46-1.22,0-.43.13-.81.39-1.14.33-.42.78-.64,1.34-.64s1.03.22,1.38.65c.24.31.37.69.37,1.15h-3.03c0,.39.13.71.38.96.24.25.54.38.9.38.17,0,.34-.03.5-.09.16-.06.3-.14.41-.24.11-.1.24-.26.37-.48ZM120.79,36.85c-.06-.23-.14-.42-.25-.55-.11-.14-.26-.25-.44-.33-.18-.08-.37-.13-.57-.13-.33,0-.61.11-.85.32-.17.15-.31.39-.39.7h2.51Z"/>
          <path d="M126.17,34.21v.42c-.16-.07-.29-.1-.41-.1-.08,0-.15.02-.21.05-.06.03-.09.07-.11.12s-.02.16-.02.35v.46s.7,0,.7,0v.37h-.7v2.99h-.44v-2.99h-.44v-.37h.44v-.53c0-.24.02-.41.07-.52.04-.1.12-.19.23-.25s.24-.09.39-.09c.14,0,.31.03.5.09Z"/>
          <path d="M128.84,35.42c.52,0,.95.19,1.29.56.31.34.47.75.47,1.22s-.16.88-.49,1.23c-.33.35-.75.53-1.26.53s-.94-.18-1.27-.53c-.33-.35-.49-.76-.49-1.23s.15-.87.46-1.21c.34-.38.77-.57,1.29-.57ZM128.84,35.85c-.36,0-.67.13-.93.4-.26.27-.39.59-.39.97,0,.24.06.47.18.68s.28.37.48.49c.2.11.42.17.66.17s.46-.06.66-.17c.2-.11.36-.28.48-.49s.18-.44.18-.68c0-.38-.13-.7-.39-.97-.26-.27-.57-.4-.93-.4Z"/>
          <path d="M131.71,35.51h.44v.49c.13-.19.27-.34.42-.44s.3-.14.46-.14c.12,0,.25.04.38.11l-.23.37c-.09-.04-.17-.06-.23-.06-.14,0-.28.06-.42.18s-.24.3-.31.55c-.05.19-.08.58-.08,1.16v1.14h-.44v-3.37Z"/>
          <path d="M136.49,34.33h.46v4.55h-.46v-4.55Z"/>
          <path d="M138.4,35.51h.43v.6c.17-.23.37-.4.58-.52s.44-.17.69-.17.47.06.67.19.34.3.43.52.14.55.14,1.01v1.73h-.43v-1.61c0-.39-.02-.65-.05-.78-.05-.22-.15-.39-.29-.5-.14-.11-.33-.17-.56-.17-.26,0-.5.09-.7.26-.21.17-.34.39-.41.64-.04.17-.06.47-.06.92v1.24h-.43v-3.37Z"/>
          <path d="M146.1,34.21v4.67h-.43v-.58c-.18.22-.39.39-.61.5-.23.11-.47.17-.74.17-.48,0-.88-.17-1.22-.52-.34-.35-.51-.77-.51-1.26s.17-.9.51-1.24c.34-.34.75-.52,1.23-.52.28,0,.53.06.75.18.22.12.42.29.59.53v-1.92h.43ZM144.37,35.84c-.24,0-.46.06-.67.18-.2.12-.37.29-.49.5-.12.21-.18.44-.18.68s.06.46.18.68c.12.22.28.38.49.51s.43.18.66.18.46-.06.67-.18c.21-.12.38-.28.49-.49.11-.2.17-.43.17-.69,0-.39-.13-.72-.38-.98-.26-.26-.57-.39-.95-.39Z"/>
          <path d="M147.71,34.12c.1,0,.18.04.25.11.07.07.1.15.1.25s-.03.18-.1.25c-.07.07-.15.11-.25.11s-.18-.04-.25-.11c-.07-.07-.11-.15-.11-.25s.04-.18.11-.25c.07-.07.15-.11.25-.11ZM147.49,35.51h.43v3.37h-.43v-3.37Z"/>
          <path d="M152.66,35.51v3.37h-.43v-.58c-.18.22-.39.39-.61.5-.23.11-.47.17-.74.17-.48,0-.88-.17-1.22-.52-.34-.35-.51-.77-.51-1.26s.17-.9.51-1.24c.34-.34.75-.52,1.23-.52.28,0,.53.06.75.18.22.12.42.29.59.53v-.62h.43ZM150.93,35.84c-.24,0-.46.06-.67.18-.2.12-.37.29-.49.5-.12.21-.18.44-.18.68s.06.46.18.68c.12.22.29.38.49.51s.42.18.66.18.46-.06.67-.18c.21-.12.38-.28.49-.49s.17-.43.17-.69c0-.39-.13-.72-.38-.98-.26-.26-.57-.39-.95-.39Z"/>
          <path d="M154.7,35.91l-.24-.14c.08-.16.13-.28.16-.37.03-.09.05-.2.06-.34h-.27v-.85h.56v.53c0,.27-.02.48-.05.63-.04.15-.11.33-.21.54Z"/>
          <path d="M158.5,35.88l-.28.29c-.23-.23-.46-.34-.68-.34-.14,0-.26.05-.36.14s-.15.2-.15.33c0,.11.04.21.12.31.08.1.26.22.52.36.32.17.54.33.66.48.11.16.17.33.17.53,0,.28-.1.51-.29.7s-.44.29-.73.29c-.19,0-.38-.04-.56-.13-.18-.08-.32-.2-.44-.35l.27-.31c.22.25.46.37.7.37.17,0,.32-.06.44-.17s.18-.24.18-.39c0-.12-.04-.23-.12-.33-.08-.09-.26-.21-.55-.36-.3-.16-.51-.31-.62-.46-.11-.15-.17-.33-.17-.52,0-.26.09-.47.26-.64.17-.17.4-.25.66-.25.31,0,.62.15.94.46Z"/>
          <path d="M162.05,38.88v-4.55h.94c.68,0,1.18.05,1.48.16.44.15.79.42,1.04.81.25.38.37.84.37,1.37,0,.46-.1.86-.29,1.2-.2.35-.45.6-.77.77-.31.17-.76.25-1.32.25h-1.45ZM162.48,38.45h.53c.63,0,1.07-.04,1.31-.12.34-.11.61-.31.81-.6.2-.29.29-.64.29-1.06,0-.44-.11-.81-.32-1.13-.21-.31-.51-.52-.89-.64-.29-.09-.75-.13-1.41-.13h-.32v3.68Z"/>
          <path d="M167.32,34.12c.1,0,.18.04.25.11.07.07.1.15.1.25s-.03.18-.1.25c-.07.07-.15.11-.25.11s-.18-.04-.25-.11c-.07-.07-.11-.15-.11-.25s.04-.18.11-.25c.07-.07.15-.11.25-.11ZM167.11,35.51h.43v3.37h-.43v-3.37Z"/>
          <path d="M171.82,35.51h.43v2.68c0,.47-.04.82-.12,1.04-.11.31-.31.55-.59.71-.28.17-.62.25-1.01.25-.29,0-.55-.04-.78-.12-.23-.08-.42-.19-.56-.33s-.28-.34-.4-.6h.47c.13.22.29.39.5.5.2.11.45.16.75.16s.54-.06.75-.17c.2-.11.35-.25.44-.42s.13-.44.13-.81v-.17c-.16.21-.36.36-.6.48s-.49.17-.75.17c-.31,0-.6-.08-.87-.23s-.48-.36-.63-.62c-.15-.26-.22-.55-.22-.86s.08-.6.23-.87c.16-.27.37-.48.64-.64.27-.16.56-.24.87-.24.25,0,.49.05.71.16.22.1.43.28.63.52v-.58ZM170.54,35.84c-.25,0-.47.06-.68.18-.21.12-.38.28-.5.49s-.18.44-.18.68c0,.37.12.67.37.92.25.24.57.36.96.36s.72-.12.96-.36c.24-.24.36-.55.36-.94,0-.25-.06-.48-.17-.68s-.27-.36-.47-.47-.42-.17-.66-.17Z"/>
          <path d="M173.81,34.12c.1,0,.18.04.25.11.07.07.1.15.1.25s-.03.18-.1.25c-.07.07-.15.11-.25.11s-.18-.04-.25-.11c-.07-.07-.11-.15-.11-.25s.04-.18.11-.25c.07-.07.15-.11.25-.11ZM173.59,35.51h.43v3.37h-.43v-3.37Z"/>
          <path d="M175.78,34.26h.43v1.25h.69v.37h-.69v2.99h-.43v-2.99h-.59v-.37h.59v-1.25Z"/>
          <path d="M181.38,35.51v3.37h-.43v-.58c-.18.22-.39.39-.61.5-.23.11-.47.17-.74.17-.48,0-.88-.17-1.22-.52-.34-.35-.51-.77-.51-1.26s.17-.9.51-1.24c.34-.34.75-.52,1.23-.52.28,0,.53.06.75.18.22.12.42.29.59.53v-.62h.43ZM179.65,35.84c-.24,0-.46.06-.67.18-.2.12-.37.29-.49.5-.12.21-.18.44-.18.68s.06.46.18.68c.12.22.29.38.49.51s.42.18.66.18.46-.06.67-.18c.21-.12.38-.28.49-.49s.17-.43.17-.69c0-.39-.13-.72-.38-.98-.26-.26-.57-.39-.95-.39Z"/>
          <path d="M182.77,34.21h.43v4.67h-.43v-4.67Z"/>
          <path d="M186.88,34.33h2.28v.45h-1.83v1.43h1.83v.45h-1.83v2.24h-.46v-4.55Z"/>
          <path d="M190.3,35.51h.43v1.57c0,.38.02.65.06.79.06.21.18.37.35.49.17.12.38.18.62.18s.45-.06.62-.17c.17-.12.29-.27.35-.46.04-.13.07-.41.07-.83v-1.57h.44v1.65c0,.46-.05.81-.16,1.05s-.27.42-.49.55c-.22.13-.49.2-.82.2s-.6-.07-.82-.2c-.22-.13-.38-.32-.49-.56-.11-.24-.16-.6-.16-1.08v-1.62Z"/>
          <path d="M195.07,34.26h.43v1.25h.69v.37h-.69v2.99h-.43v-2.99h-.59v-.37h.59v-1.25Z"/>
          <path d="M197.26,35.51h.43v1.57c0,.38.02.65.06.79.06.21.18.37.35.49.17.12.38.18.62.18s.45-.06.62-.17c.17-.12.29-.27.35-.46.04-.13.07-.41.07-.83v-1.57h.44v1.65c0,.46-.05.81-.16,1.05s-.27.42-.49.55c-.22.13-.49.2-.82.2s-.6-.07-.82-.2c-.22-.13-.38-.32-.49-.56-.11-.24-.16-.6-.16-1.08v-1.62Z"/>
          <path d="M201.48,35.51h.44v.49c.13-.19.27-.34.42-.44s.3-.14.46-.14c.12,0,.25.04.38.11l-.23.37c-.09-.04-.17-.06-.23-.06-.14,0-.28.06-.42.18s-.24.3-.31.55c-.05.19-.08.58-.08,1.16v1.14h-.44v-3.37Z"/>
          <path d="M206.84,37.76l.37.19c-.12.24-.26.43-.42.57-.16.14-.33.25-.53.33s-.42.11-.67.11c-.55,0-.98-.18-1.29-.54-.31-.36-.46-.77-.46-1.22,0-.43.13-.81.39-1.14.33-.42.78-.64,1.34-.64s1.03.22,1.38.65c.24.31.37.69.37,1.15h-3.03c0,.39.13.71.38.96.24.25.54.38.9.38.17,0,.34-.03.5-.09.16-.06.3-.14.41-.24.11-.1.24-.26.37-.48ZM206.84,36.85c-.06-.23-.14-.42-.25-.55-.11-.14-.26-.25-.44-.33-.18-.08-.37-.13-.57-.13-.33,0-.61.11-.85.32-.17.15-.31.39-.39.7h2.51Z"/>
        </g>
        <g fill="#FFFFFF">
          <path d="M73.87,27.73c-.23.38-.51.73-.83,1.05-.52.52-1.12.92-1.8,1.2-.68.28-1.39.42-2.12.42s-1.44-.14-2.12-.42c-.68-.28-1.28-.68-1.8-1.2s-.92-1.12-1.2-1.8c-.28-.68-.42-1.39-.42-2.12s.14-1.44.42-2.12c.28-.68.68-1.28,1.2-1.8s1.12-.92,1.8-1.2c.68-.28,1.39-.42,2.12-.42s1.44.14,2.12.42c.68.28,1.28.68,1.8,1.2.43.43.78.92,1.05,1.46l-1.98.98c-.16-.31-.37-.6-.63-.87-.65-.65-1.43-.97-2.35-.97s-1.7.32-2.35.97c-.65.65-.97,1.43-.97,2.35s.32,1.7.97,2.35c.65.65,1.43.97,2.35.97s1.7-.33,2.35-.98c.2-.2.36-.4.49-.62l1.9,1.14Z"/>
          <path d="M77.23,25.18l-.21-.31-3.67-5.53h2.63l2.35,3.55,2.35-3.55h2.63l-3.67,5.53-.21.31v5.22h-2.21v-5.22Z"/>
          <path d="M84.05,21.55v-2.21h5.53c.92,0,1.7.32,2.35.97.65.65.97,1.43.97,2.35,0,.85-.28,1.59-.85,2.21.56.62.85,1.36.85,2.21,0,.92-.32,1.7-.97,2.35-.65.65-1.43.97-2.35.97h-5.53v-6.64h5.53c.3,0,.57-.11.78-.32.22-.22.32-.48.32-.78s-.11-.57-.32-.78c-.22-.22-.48-.32-.78-.32h-5.53ZM86.26,25.98v2.21h3.32c.3,0,.57-.11.78-.32.22-.22.32-.48.32-.78s-.11-.57-.32-.78c-.22-.22-.48-.32-.78-.32h-3.32Z"/>
          <path d="M94.36,21.55v-2.21h7.74v2.21h-7.74ZM102.1,23.76v2.21h-5.53v2.21h5.53v2.21h-7.74v-6.64h7.74Z"/>
          <path d="M104.19,21.55v-2.21h5.53c.92,0,1.7.32,2.35.97.65.65.97,1.43.97,2.35s-.32,1.7-.97,2.35c-.65.65-1.43.97-2.35.97h-.55l3.87,4.43h-2.9l-3.73-4.15v4.15h-2.21v-6.64h5.53c.3,0,.57-.11.78-.32.22-.22.32-.48.32-.78s-.11-.57-.32-.78c-.22-.22-.48-.32-.78-.32h-5.53Z"/>
          <path d="M120.39,21.55v-2.21h7.74v2.21h-7.74ZM128.13,23.76v2.21h-5.53v4.43h-2.21v-6.64h7.74Z"/>
          <path d="M132.14,30.4h-2.21v-11.06h2.21v11.06Z"/>
          <path d="M134.26,21.55v-2.21h5.53c.92,0,1.7.32,2.35.97.65.65.97,1.43.97,2.35s-.32,1.7-.97,2.35c-.65.65-1.43.97-2.35.97h-.55l3.87,4.43h-2.9l-3.73-4.15v4.15h-2.21v-6.64h5.53c.3,0,.57-.11.78-.32.22-.22.32-.48.32-.78s-.11-.57-.32-.78c-.22-.22-.48-.32-.78-.32h-5.53Z"/>
          <path d="M145.25,27.48c.07.11.32.27.73.48.46.24.95.36,1.47.38h.08c.34,0,.68-.07,1.01-.21.33-.14.51-.39.52-.74v-.03c0-.29-.13-.54-.39-.76-.26-.22-.57-.42-.93-.62-.36-.2-.73-.38-1.12-.56-.47-.21-.89-.46-1.27-.75-.38-.29-.68-.63-.89-1.02-.2-.36-.29-.78-.29-1.26v-.12c.02-.6.21-1.14.56-1.6.36-.46.83-.82,1.43-1.08.55-.24,1.15-.36,1.79-.36h.13c.83.03,1.54.22,2.13.58.27.17.46.3.55.41l-1,1.86c-.04-.06-.26-.17-.65-.34-.39-.17-.75-.25-1.06-.26h-.07c-.35,0-.65.08-.92.25-.26.17-.4.41-.41.71v.02c0,.31.14.55.43.72.29.17.64.34,1.06.51.21.09.45.19.72.31.58.25,1.08.55,1.5.88.42.33.74.71.95,1.12.2.39.3.83.3,1.31v.08c-.02.67-.23,1.25-.62,1.73-.39.48-.9.84-1.53,1.1-.58.24-1.21.35-1.88.35h-.18c-.91-.03-1.73-.23-2.45-.61-.36-.19-.61-.36-.75-.5l1.06-1.98Z"/>
          <path d="M160.46,19.34v2.21h-3.32v8.85h-2.21v-8.85h-3.32v-2.21h8.85Z"/>
          <path d="M170.02,30.4h-2.21v-11.06h2.21v11.06Z"/>
          <path d="M174.35,24.18v6.22h-2.21v-11.62l6.64,6.78v-6.22h2.21v11.62l-6.64-6.78Z"/>
          <path d="M183.12,21.55v-2.21h4.43c.73,0,1.44.14,2.12.42.68.28,1.28.68,1.8,1.2s.92,1.12,1.2,1.8.42,1.39.42,2.12-.14,1.44-.42,2.12c-.28.68-.68,1.28-1.2,1.8s-1.12.92-1.8,1.2c-.68.28-1.39.42-2.12.42h-4.43v-6.64h2.21v4.43h2.21c.92,0,1.7-.32,2.35-.97.65-.65.97-1.43.97-2.35s-.32-1.7-.97-2.35c-.65-.65-1.43-.97-2.35-.97h-4.43Z"/>
          <path d="M196.65,30.4h-2.21v-11.06h2.21v11.06Z"/>
          <path d="M197.44,30.4l4.98-11.62,4.98,11.62h-2.35l-2.63-5.95-2.63,5.95h-2.35Z"/>
        </g>
      </g>
    </g>
  </g>
</svg>