<svg xmlns="http://www.w3.org/2000/svg" viewBox="0 0 180 180">
  <rect width="180" height="180" rx="40" fill="#0A0A0A"/>
  <svg x="10" y="50" width="160" height="80" viewBox="35 0 63 26">
    <!-- E -->
    <path fill="#FFFFFF" d="M37,10.84h10.66v4.2h-10.66v4.75h12.06v4.17h-16.87V1.7h16.87v4.17h-12.06v4.96Z"/>
    <!-- F -->
    <polygon fill="#FFFFFF" points="58.34 23.96 58.34 14.95 68.96 14.95 68.96 10.78 53.5 10.78 53.5 23.96 58.34 23.96"/>
    <rect fill="#F36C25" x="53.5" y="1.7" width="16.87" height="4.17"/>
    <!-- G -->
    <path fill="#FFFFFF" d="M96.3,13.36c.36,14.78-24.12,14.02-23.68-.52-.34-11.31,16.24-15.75,22.07-6.18l-4.14,2.41c-3.64-6.01-13.28-3.11-13.15,3.78-.36,7.44,11.3,9.88,13.7,2.95h-8.31v-4.23h13.46c.03.61.06,1.31.06,1.8Z"/>
  </svg>
</svg>
