<svg xmlns="http://www.w3.org/2000/svg" viewBox="0 0 180 180">
  <rect width="180" height="180" rx="40" fill="#0A0A0A"/>
  <g transform="translate(30, 50) scale(4.5)">
    <g>
      <path fill="#F36C25" d="M26.03,12.26C25.91,3.04,15.06-3.04,7.17,1.58c20.55-6.98,19.5,27.2-.57,18.97,4.47,9.38,20.82,2.56,19.43-8.29Z"/>
      <path fill="#F36C25" d="M21.53,17.41c.07,4.61-7.18,4.61-7.11,0-.07-4.61,7.18-4.61,7.11,0Z"/>
    </g>
    <g>
      <path fill="#FFFFFF" d="M.08,13.68c.12,9.21,10.97,15.3,18.86,10.67C-1.61,31.34-.56-2.85,19.51,5.38,15.05-4-1.31,2.83.08,13.68Z"/>
      <path fill="#FFFFFF" d="M12.58,8.42c.07,4.61-7.18,4.61-7.11,0-.07-4.61,7.18-4.61,7.11,0Z"/>
    </g>
  </g>
</svg>
