<svg xmlns="http://www.w3.org/2000/svg" viewBox="0 0 240 60" fill="none">
  <!-- Shield Icon -->
  <g transform="translate(5, 5)">
    <path d="M25 2L5 10v15c0 12.5 8.5 24 20 27 11.5-3 20-14.5 20-27V10L25 2z" 
          fill="none" stroke="white" stroke-width="2"/>
    <!-- AI Brain inside shield -->
    <circle cx="25" cy="22" r="8" fill="none" stroke="white" stroke-width="1.5"/>
    <circle cx="25" cy="22" r="4" fill="white"/>
    <!-- Data nodes -->
    <circle cx="15" cy="16" r="2" fill="white"/>
    <circle cx="35" cy="16" r="2" fill="white"/>
    <circle cx="15" cy="28" r="2" fill="white"/>
    <circle cx="35" cy="28" r="2" fill="white"/>
    <!-- Connections -->
    <line x1="17" y1="17" x2="21" y2="20" stroke="white" stroke-width="1" opacity="0.7"/>
    <line x1="33" y1="17" x2="29" y2="20" stroke="white" stroke-width="1" opacity="0.7"/>
    <line x1="17" y1="27" x2="21" y2="24" stroke="white" stroke-width="1" opacity="0.7"/>
    <line x1="33" y1="27" x2="29" y2="24" stroke="white" stroke-width="1" opacity="0.7"/>
  </g>
  
  <!-- Text -->
  <text x="60" y="25" font-family="system-ui, -apple-system, 'Segoe UI', sans-serif" font-size="14" font-weight="800" fill="white" letter-spacing="-0.3">
    DATA &amp; AI FIRST
  </text>
  <text x="60" y="42" font-family="system-ui, -apple-system, 'Segoe UI', sans-serif" font-size="11" font-weight="500" fill="white" opacity="0.7" letter-spacing="1">
    KUWAIT
  </text>
</svg>
